<svg viewBox="0 0 2550 3300" version="1.1" xmlns="http://www.w3.org/2000/svg" xmlns:xlink="http://www.w3.org/1999/xlink">
  <style>
    /* Couleur par défaut (Thème Clair) */
    .logo-fill { fill: #32333f; }
    
    /* Changement de couleur pour le Thème Sombre */
    @media (prefers-color-scheme: dark) {
      .logo-fill { fill: white; }
    }
  </style>
  
  <g transform="matrix(1.947557,0,0,1.947557,-1149.545277,-1607.138681)">
    <path class="logo-fill" d="M1467,1323C1431.254,1347.826 1506.663,1213.004 1487.491,1143.717C1487.154,1142.56 1487.356,1141.312 1488.042,1140.321C1488.727,1139.329 1489.822,1138.699 1491.024,1138.605C1515.961,1136.372 1627.324,1123.977 1678.745,1076.413C1679.422,1075.749 1680.472,1075.654 1681.258,1076.184C1682.043,1076.715 1682.347,1077.725 1681.985,1078.601C1668.582,1111.909 1627.716,1223.298 1657.684,1276.741C1658.354,1277.898 1658.393,1279.316 1657.787,1280.509C1657.18,1281.701 1656.011,1282.505 1654.681,1282.644C1624.966,1285.884 1499.188,1300.646 1467,1323Z"/>
  </g>
  <g transform="matrix(1.947557,0,0,1.947557,-1161.230618,-1612.981351)">
    <path class="logo-fill" d="M1472,1397C1445.241,1419.098 1350.174,1514.678 1364,1549C1377.682,1582.966 1449.07,1530.154 1556.609,1631.756C1557.251,1632.362 1558.181,1632.551 1559.009,1632.244C1559.837,1631.938 1560.419,1631.188 1560.512,1630.31C1562.99,1611.328 1576.516,1538.08 1642.406,1472.518C1643.269,1471.663 1643.695,1470.46 1643.563,1469.252C1643.43,1468.044 1642.754,1466.962 1641.727,1466.313C1617.348,1451.093 1496.042,1377.145 1472,1397Z"/>
  </g>
  <g transform="matrix(1.947557,0,0,1.947557,-1149.545277,-1607.138681)">
    <path class="logo-fill" d="M1362,1317C1302.825,1340.355 1233.274,1377.235 1200,1409C1170.487,1437.175 1247.524,1362.481 1079,1283C1024.592,1257.34 1180.714,1138.844 1219,1158C1259.997,1178.513 1421.175,1293.645 1362,1317Z"/>
  </g>
  <g transform="matrix(1.947557,0,0,1.947557,-1149.545277,-1607.138681)">
    <path class="logo-fill" d="M1015,1917C1007.624,1911.502 1013.18,1923.601 1049.12,1926.123C1075.923,1928.004 1128.057,1921.451 1159,1915C1159,1915 1162.723,2082.064 833,2169C833,2169 789.51,2160.073 840,2125C889.518,2090.603 875.672,2100.634 925,2067C925,2067 957.72,2052.244 1000,1985C1000,1985 1025.638,1924.93 1015,1917Z"/>
  </g>
  <g transform="matrix(1.947557,0,0,1.947557,-1149.545277,-1607.138681)">
    <path class="logo-fill" d="M1416,1375C1477.792,1321.761 1264.989,1387.857 1119,1536C1119,1536 991.576,1658.421 977,1774C977,1774 957.663,1887.343 1048,1893C1048,1893 1110.433,1887.758 1217,1878C1219.354,1877.784 1347.887,1861.095 1252,2015C1252,2015 1204.896,2080.665 1055,2221C896.892,2369.024 1431.216,2064.879 1492,1934C1492,1934 1530.826,1862.718 1455,1788C1379.174,1713.282 1261.566,1777.298 1225,1725C1188.434,1672.702 1219.235,1630.416 1238,1594C1256.765,1557.584 1354.208,1428.239 1416,1375Z"/>
  </g>
</svg>