<svg xmlns="http://www.w3.org/2000/svg" xmlns:xlink="http://www.w3.org/1999/xlink" width="500" zoomAndPan="magnify" viewBox="0 0 375 180" height="500" preserveAspectRatio="xMidYMid meet" version="1.0"><defs><g/></defs><path fill="#ffffff" d="M 116.792969 154.785156 C 113.464844 157.097656 120.484375 144.542969 118.699219 138.089844 C 118.667969 137.984375 118.6875 137.867188 118.75 137.773438 C 118.816406 137.683594 118.917969 137.625 119.027344 137.613281 C 121.351562 137.40625 131.722656 136.253906 136.507812 131.824219 C 136.570312 131.761719 136.671875 131.753906 136.742188 131.800781 C 136.816406 131.851562 136.84375 131.945312 136.8125 132.027344 C 135.5625 135.128906 131.757812 145.5 134.546875 150.476562 C 134.609375 150.585938 134.613281 150.71875 134.558594 150.828125 C 134.5 150.9375 134.390625 151.015625 134.269531 151.027344 C 131.5 151.328125 119.789062 152.703125 116.792969 154.785156 Z M 116.792969 154.785156 " fill-opacity="1" fill-rule="evenodd"/><path fill="#ffffff" d="M 116.699219 161.394531 C 114.207031 163.453125 105.355469 172.355469 106.640625 175.550781 C 107.917969 178.710938 114.5625 173.796875 124.578125 183.257812 C 124.636719 183.3125 124.722656 183.328125 124.800781 183.300781 C 124.878906 183.273438 124.933594 183.203125 124.941406 183.121094 C 125.171875 181.355469 126.429688 174.53125 132.566406 168.429688 C 132.648438 168.347656 132.6875 168.238281 132.675781 168.125 C 132.660156 168.011719 132.597656 167.910156 132.503906 167.851562 C 130.234375 166.433594 118.9375 159.546875 116.699219 161.394531 Z M 116.699219 161.394531 " fill-opacity="1" fill-rule="evenodd"/><path fill="#ffffff" d="M 107.015625 154.226562 C 101.503906 156.402344 95.027344 159.835938 91.929688 162.792969 C 89.179688 165.417969 96.355469 158.460938 80.664062 151.058594 C 75.597656 148.671875 90.132812 137.636719 93.699219 139.421875 C 97.515625 141.332031 112.523438 152.050781 107.015625 154.226562 Z M 107.015625 154.226562 " fill-opacity="1" fill-rule="evenodd"/><path fill="#ffffff" d="M 74.703125 210.097656 C 74.015625 209.585938 74.535156 210.710938 77.878906 210.945312 C 80.375 211.121094 85.230469 210.511719 88.113281 209.910156 C 88.113281 209.910156 88.457031 225.46875 57.753906 233.5625 C 57.753906 233.5625 53.707031 232.730469 58.40625 229.464844 C 63.019531 226.261719 61.730469 227.195312 66.320312 224.0625 C 66.320312 224.0625 69.367188 222.691406 73.304688 216.429688 C 73.304688 216.429688 75.695312 210.835938 74.703125 210.097656 Z M 74.703125 210.097656 " fill-opacity="1" fill-rule="evenodd"/><path fill="#ffffff" d="M 112.042969 159.625 C 117.796875 154.667969 97.980469 160.824219 84.386719 174.617188 C 84.386719 174.617188 72.523438 186.019531 71.164062 196.78125 C 71.164062 196.78125 69.363281 207.335938 77.777344 207.863281 C 77.777344 207.863281 83.589844 207.375 93.511719 206.464844 C 93.730469 206.445312 105.699219 204.890625 96.773438 219.222656 C 96.773438 219.222656 92.386719 225.335938 78.425781 238.40625 C 63.703125 252.1875 113.460938 223.867188 119.121094 211.679688 C 119.121094 211.679688 122.734375 205.042969 115.675781 198.085938 C 108.613281 191.125 97.664062 197.089844 94.257812 192.21875 C 90.851562 187.347656 93.71875 183.410156 95.46875 180.019531 C 97.214844 176.628906 106.289062 164.585938 112.042969 159.625 Z M 112.042969 159.625 " fill-opacity="1" fill-rule="evenodd"/><g fill="#ffffff" fill-opacity="1"><g transform="translate(144.485591, 208.148907)"><g><path d="M 28.296875 -49.5625 C 33.460938 -49.5625 38.3125 -48.238281 42.84375 -45.59375 L 36.3125 -35.859375 C 34.039062 -37.992188 31.4375 -39.0625 28.5 -39.0625 C 26.957031 -39.0625 25.554688 -38.625 24.296875 -37.75 C 23.035156 -36.875 22.40625 -35.796875 22.40625 -34.515625 C 22.40625 -33.578125 22.851562 -32.753906 23.75 -32.046875 C 24.644531 -31.335938 26.289062 -30.644531 28.6875 -29.96875 C 31.925781 -28.988281 34.269531 -28.035156 35.71875 -27.109375 C 37.175781 -26.191406 38.3125 -25.0625 39.125 -23.71875 C 39.9375 -22.375 40.34375 -20.703125 40.34375 -18.703125 C 40.34375 -15.796875 39.59375 -12.71875 38.09375 -9.46875 C 36.601562 -6.226562 34.160156 -3.644531 30.765625 -1.71875 C 27.367188 0.195312 23.347656 1.195312 18.703125 1.28125 C 12.722656 1.28125 7.34375 -0.550781 2.5625 -4.21875 L 9.546875 -14.34375 C 12.867188 -11.007812 16.300781 -9.34375 19.84375 -9.34375 C 21.8125 -9.34375 23.46875 -9.851562 24.8125 -10.875 C 26.15625 -11.90625 26.828125 -13.210938 26.828125 -14.796875 C 26.828125 -16.835938 24.78125 -18.414062 20.6875 -19.53125 C 15.726562 -20.894531 12.523438 -22.351562 11.078125 -23.90625 C 9.628906 -25.46875 8.90625 -27.550781 8.90625 -30.15625 C 8.90625 -35.625 10.769531 -40.222656 14.5 -43.953125 C 18.238281 -47.691406 22.835938 -49.5625 28.296875 -49.5625 Z M 28.296875 -49.5625 "/></g></g></g><g fill="#ffffff" fill-opacity="1"><g transform="translate(181.687527, 208.148907)"><g><path d="M 41.296875 -48.28125 L 39.640625 -37.65625 L 29.265625 -37.65625 L 23.3125 0 L 10.75 0 L 16.71875 -37.65625 L 6.34375 -37.65625 L 8 -48.28125 Z M 41.296875 -48.28125 "/></g></g></g><g fill="#ffffff" fill-opacity="1"><g transform="translate(213.638903, 208.148907)"><g><path d="M 30.796875 -48.28125 C 35.148438 -48.28125 38.640625 -47.253906 41.265625 -45.203125 C 43.890625 -43.148438 45.203125 -40.207031 45.203125 -36.375 C 45.203125 -32.269531 43.984375 -28.648438 41.546875 -25.515625 C 39.117188 -22.378906 36.003906 -20.46875 32.203125 -19.78125 L 44.25 0 L 28.625 0 L 19.71875 -18.5625 L 19.59375 -18.5625 L 16.640625 0 L 4.09375 0 L 11.71875 -48.28125 Z M 20.875 -26.640625 L 22.609375 -26.640625 C 25.546875 -26.640625 27.828125 -27.253906 29.453125 -28.484375 C 31.078125 -29.722656 31.890625 -31.539062 31.890625 -33.9375 C 31.890625 -37.09375 29.285156 -38.671875 24.078125 -38.671875 L 22.796875 -38.671875 Z M 20.875 -26.640625 "/></g></g></g><g fill="#ffffff" fill-opacity="1"><g transform="translate(255.002884, 208.148907)"><g><path d="M 24.265625 -48.28125 L 16.640625 0 L 4.09375 0 L 11.71875 -48.28125 Z M 24.265625 -48.28125 "/></g></g></g><g fill="#ffffff" fill-opacity="1"><g transform="translate(273.571722, 208.148907)"><g><path d="M 20.296875 -48.28125 L 27.34375 -18.953125 L 43.671875 -48.28125 L 57.3125 -48.28125 L 29.0625 0 L 19.34375 0 L 6.65625 -48.28125 Z M 20.296875 -48.28125 "/></g></g></g></svg>